<svg xmlns="http://www.w3.org/2000/svg" viewBox="0 0 536.57 532.56"><title>rpl-logo-icon</title><path d="M536,249.14c-2.11-21-5.1-41.92-11.52-62.13Q490.52,80.12,390.84,28.6C361.38,13.39,329.67,5.28,296.9,1.07c-3.15-1.08-6.57.27-9.69-1.07L249.83,0c-3.1,1.33-6.48,0-9.6,1l-5.64.42c-2.44,1.43-5.33-.09-7.8,1.17a55.89,55.89,0,0,1-6.38,1.65,239.18,239.18,0,0,0-73.17,22.89C115.63,42.75,87.89,63.66,64.76,90.78a273.59,273.59,0,0,0-49,83.67A240.6,240.6,0,0,0,1.13,246.16c-1.38,6.17.58,12.55-1.13,18.7a2.14,2.14,0,0,1,0,2.86c1.71,6.15-.25,12.52,1.13,18.7.74,4.41-.39,9.13.53,13.24,3.11,13.85,5,27.89,8.82,41.67a253.84,253.84,0,0,0,32.64,71.94c13.43,20.58,29.33,39.28,48.61,55.25,15.3,12.67,31.08,24.32,48.58,33.43,27.18,14.17,55.92,24,86.48,28,2.46,1.25,5.34-.3,7.76,1.17l4.18.32c3.58,1.33,7.47-.34,11,1.13h37.5c3.1-1.33,6.5,0,9.63-1.06l5.62-.4c2.45-1.43,5.34.09,7.82-1.18,25.5-5.06,50.61-11.42,74.19-22.77,41.67-20,76.4-48.45,103.14-86.31,29.11-41.21,44.25-87.37,48.33-137.41A259.84,259.84,0,0,0,536,249.14ZM269.41,478.38c-118.93,0-213.18-93.86-213.5-212.57-.31-118.5,95.13-213.57,213.8-213,119.37.6,213.25,94.43,213,212.92C482.52,384.52,388.33,478.39,269.41,478.38Z" style="fill:#3d5362"/><path d="M460.86,266.18C461,376.77,377,462.1,267.77,462.39c-109,.28-192.64-85.32-192.06-196.66S159,70,267.54,70.17C376.77,70.33,460.73,155.47,460.86,266.18Zm-326.12.73c.37,79.94,57.17,138.46,133.87,137.91,76.24-.55,133.63-60.43,133.38-139.17-.25-79.07-58.85-138.5-136-137.93C190.31,128.29,134.37,187.61,134.74,266.91Z" style="fill:#e9322a"/></svg>